<svg width="69" height="69" viewBox="0 0 69 69" fill="none" xmlns="http://www.w3.org/2000/svg">
<g clip-path="url(#clip0_4244_6255)">
<path d="M68.5 34.7139C68.5 15.931 53.2701 0.713867 34.5 0.713867C15.7171 0.713867 0.5 15.931 0.5 34.7139C0.5 51.6799 12.9291 65.7474 29.1875 68.2952V44.5441H20.5536V34.716H29.1875V27.2211C29.1875 18.702 34.2556 13.9972 42.0246 13.9972C45.7455 13.9972 49.6406 14.6602 49.6406 14.6602V23.0264H45.346C41.13 23.0264 39.8125 25.6507 39.8125 28.3389V34.7139H49.2411L47.726 44.542H39.8125V68.2931C56.0581 65.7452 68.5 51.6777 68.5 34.7117V34.7139Z" fill="#DFEBF3"/>
</g>
<defs>
<clipPath id="clip0_4244_6255">
<rect width="68" height="68" fill="white" transform="translate(0.5 0.713867)"/>
</clipPath>
</defs>
</svg>
