<svg width="69" height="69" viewBox="0 0 69 69" fill="none" xmlns="http://www.w3.org/2000/svg">
<path d="M34.5034 24.5139C31.7982 24.5139 29.2038 25.5885 27.2909 27.5014C25.378 29.4142 24.3034 32.0087 24.3034 34.7139C24.3034 37.4191 25.378 40.0135 27.2909 41.9264C29.2038 43.8392 31.7982 44.9139 34.5034 44.9139C37.2086 44.9139 39.803 43.8392 41.7159 41.9264C43.6288 40.0135 44.7034 37.4191 44.7034 34.7139C44.7034 32.0087 43.6288 29.4142 41.7159 27.5014C39.803 25.5885 37.2086 24.5139 34.5034 24.5139ZM34.5034 17.7139C39.0121 17.7139 43.3361 19.5049 46.5242 22.6931C49.7123 25.8812 51.5034 30.2052 51.5034 34.7139C51.5034 39.2225 49.7123 43.5466 46.5242 46.7347C43.3361 49.9228 39.0121 51.7139 34.5034 51.7139C29.9947 51.7139 25.6707 49.9228 22.4826 46.7347C19.2945 43.5466 17.5034 39.2225 17.5034 34.7139C17.5034 30.2052 19.2945 25.8812 22.4826 22.6931C25.6707 19.5049 29.9947 17.7139 34.5034 17.7139ZM56.6034 16.8639C56.6034 17.991 56.1556 19.072 55.3586 19.8691C54.5616 20.6661 53.4806 21.1139 52.3534 21.1139C51.2262 21.1139 50.1452 20.6661 49.3482 19.8691C48.5512 19.072 48.1034 17.991 48.1034 16.8639C48.1034 15.7367 48.5512 14.6557 49.3482 13.8587C50.1452 13.0616 51.2262 12.6139 52.3534 12.6139C53.4806 12.6139 54.5616 13.0616 55.3586 13.8587C56.1556 14.6557 56.6034 15.7367 56.6034 16.8639ZM34.5034 7.51387C26.0918 7.51387 24.7182 7.53767 20.8048 7.71107C18.1392 7.83687 16.3508 8.19387 14.6916 8.83987C13.3038 9.35113 12.0489 10.168 11.0196 11.2301C9.95633 12.259 9.13825 13.514 8.626 14.9021C7.98 16.5681 7.623 18.3531 7.5006 21.0153C7.3238 24.7689 7.3 26.0813 7.3 34.7139C7.3 43.1289 7.3238 44.4991 7.4972 48.4125C7.623 51.0747 7.98 52.8665 8.6226 54.5223C9.2006 56.0013 9.8806 57.0655 11.0094 58.1943C12.1552 59.3367 13.2194 60.0201 14.6814 60.5845C16.361 61.2339 18.1494 61.5943 20.8014 61.7167C24.555 61.8935 25.8674 61.9139 34.5 61.9139C42.915 61.9139 44.2852 61.8901 48.1986 61.7167C50.8574 61.5909 52.6458 61.2339 54.3084 60.5913C55.6962 60.08 56.9512 59.2631 57.9804 58.2011C59.1262 57.0587 59.8096 55.9945 60.374 54.5291C61.02 52.8563 61.3804 51.0679 61.5028 48.4091C61.6796 44.6589 61.7 43.3431 61.7 34.7139C61.7 26.3023 61.6762 24.9287 61.5028 21.0153C61.377 18.3565 61.0166 16.5613 60.374 14.9021C59.8627 13.5143 59.0458 12.2593 57.9838 11.2301C56.9549 10.1668 55.6999 9.34872 54.3118 8.83647C52.6458 8.19047 50.8574 7.83347 48.1986 7.71107C44.4484 7.53427 43.136 7.51387 34.5 7.51387M34.5 0.713867C43.7378 0.713867 44.8904 0.747867 48.5182 0.917867C52.1358 1.08787 54.6042 1.65567 56.77 2.49887C59.014 3.36247 60.9044 4.53207 62.7948 6.41907C64.5244 8.11816 65.8622 10.1743 66.715 12.4439C67.5548 14.6097 68.126 17.0781 68.296 20.6991C68.4558 24.3235 68.5 25.4761 68.5 34.7139C68.5 43.9517 68.466 45.1043 68.296 48.7287C68.126 52.3531 67.5548 54.8147 66.715 56.9839C65.8622 59.2535 64.5244 61.3096 62.7948 63.0087C61.0957 64.7382 59.0396 66.0761 56.77 66.9289C54.6042 67.7687 52.1358 68.3399 48.5182 68.5099C44.8904 68.6697 43.7378 68.7139 34.5 68.7139C25.2622 68.7139 24.1096 68.6799 20.4818 68.5099C16.8642 68.3399 14.3992 67.7687 12.23 66.9289C9.96041 66.0761 7.90429 64.7382 6.2052 63.0087C4.47564 61.3096 3.13777 59.2535 2.285 56.9839C1.4418 54.8181 0.874 52.3497 0.704 48.7287C0.5408 45.1043 0.5 43.9517 0.5 34.7139C0.5 25.4761 0.534 24.3235 0.704 20.6991C0.874 17.0747 1.4418 14.6131 2.285 12.4439C3.13777 10.1743 4.47564 8.11816 6.2052 6.41907C7.90429 4.68951 9.96041 3.35164 12.23 2.49887C14.3958 1.65567 16.8608 1.08787 20.4818 0.917867C24.113 0.758067 25.2656 0.713867 34.5034 0.713867" fill="#DFEBF3"/>
</svg>
