<svg width="45" height="41" viewBox="0 0 45 41" fill="none" xmlns="http://www.w3.org/2000/svg">
<path d="M21.1137 9.56188C21.1137 10.614 20.9448 11.6091 20.6071 12.5473C20.2694 13.4854 19.7096 14.2964 18.9275 14.9803C18.1455 15.6642 17.2124 16.0061 16.1283 16.0061C14.7775 16.0061 13.5511 15.502 12.4492 14.4937C11.3472 13.4854 10.5297 12.2974 9.99645 10.9296C9.46325 9.56188 9.19665 8.23797 9.19665 6.95789C9.19665 5.90577 9.3655 4.91065 9.70319 3.97251C10.0409 3.03437 10.6007 2.22336 11.3828 1.53949C12.1648 0.85561 13.0979 0.513672 14.1821 0.513672C15.5506 0.513672 16.7814 1.01781 17.8745 2.02609C18.9675 3.03437 19.7807 4.218 20.3139 5.57699C20.8471 6.93597 21.1137 8.26427 21.1137 9.56188ZM11.996 22.2662C11.996 23.669 11.6227 24.8877 10.8762 25.9223C10.1298 26.9569 9.07224 27.4742 7.70369 27.4742C6.35292 27.4742 5.09546 26.9876 3.93131 26.0144C2.76715 25.0412 1.87404 23.8707 1.25198 22.5029C0.629911 21.1352 0.318878 19.8025 0.318878 18.5049C0.318878 17.1021 0.692118 15.879 1.4386 14.8356C2.18508 13.7923 3.24259 13.2706 4.61114 13.2706C5.96191 13.2706 7.21937 13.7572 8.38352 14.7304C9.54768 15.7036 10.4408 16.8785 11.0629 18.255C11.6849 19.6315 11.996 20.9686 11.996 22.2662ZM22.5 21.556C24.5972 21.556 26.8633 22.4109 29.2983 24.1206C31.7332 25.8302 33.7683 27.9082 35.4034 30.3544C37.0386 32.8005 37.8561 35.0319 37.8561 37.0484C37.8561 37.8551 37.7051 38.5258 37.4029 39.0606C37.1008 39.5954 36.6698 39.99 36.1099 40.2443C35.55 40.4985 34.9769 40.6739 34.3903 40.7703C33.8038 40.8668 33.1284 40.915 32.3642 40.915C31.1556 40.915 29.4893 40.5204 27.3654 39.7313C25.2415 38.9423 23.6197 38.5477 22.5 38.5477C21.3269 38.5477 19.6163 38.9379 17.3679 39.7182C15.1196 40.4985 13.3378 40.8887 12.0226 40.8887C8.77009 40.8887 7.14383 39.6086 7.14383 37.0484C7.14383 35.5404 7.64149 33.8614 8.63679 32.0114C9.6321 30.1615 10.8718 28.4737 12.3559 26.9481C13.8399 25.4226 15.5062 24.1425 17.3546 23.1079C19.203 22.0733 20.9182 21.556 22.5 21.556ZM28.8717 16.0061C27.7875 16.0061 26.8545 15.6642 26.0724 14.9803C25.2904 14.2964 24.7305 13.4854 24.3928 12.5473C24.0552 11.6091 23.8863 10.614 23.8863 9.56188C23.8863 8.26427 24.1529 6.93597 24.6861 5.57699C25.2193 4.218 26.0324 3.03437 27.1255 2.02609C28.2186 1.01781 29.4494 0.513672 30.8179 0.513672C31.9021 0.513672 32.8352 0.85561 33.6172 1.53949C34.3992 2.22336 34.9591 3.03437 35.2968 3.97251C35.6345 4.91065 35.8033 5.90577 35.8033 6.95789C35.8033 8.23797 35.5367 9.56188 35.0035 10.9296C34.4703 12.2974 33.6527 13.4854 32.5508 14.4937C31.4489 15.502 30.2225 16.0061 28.8717 16.0061ZM40.3888 13.2706C41.7574 13.2706 42.8149 13.7923 43.5614 14.8356C44.3079 15.879 44.6811 17.1021 44.6811 18.5049C44.6811 19.8025 44.3701 21.1352 43.748 22.5029C43.1259 23.8707 42.2328 25.0412 41.0687 26.0144C39.9045 26.9876 38.6471 27.4742 37.2963 27.4742C35.9277 27.4742 34.8702 26.9569 34.1237 25.9223C33.3773 24.8877 33.004 23.669 33.004 22.2662C33.004 20.9686 33.3151 19.6315 33.9371 18.255C34.5592 16.8785 35.4523 15.7036 36.6164 14.7304C37.7806 13.7572 39.0381 13.2706 40.3888 13.2706Z" fill="white"/>
</svg>
