<svg width="19" height="26" viewBox="0 0 19 26" fill="none" xmlns="http://www.w3.org/2000/svg">
<path fill-rule="evenodd" clip-rule="evenodd" d="M8.85203 0.417083C8.43715 0.451371 8.1239 0.493035 7.77913 0.559819C7.57297 0.599755 7.15982 0.697387 7.07603 0.725963C7.05403 0.733467 7.00363 0.748699 6.96403 0.759787C6.72755 0.826059 6.24377 0.998971 6.02933 1.09388C5.99341 1.10977 5.93883 1.1328 5.90803 1.14505C5.76518 1.20187 5.17323 1.50649 4.97185 1.62683C4.31038 2.02211 3.79185 2.42726 3.2359 2.9832C2.67997 3.53915 2.27481 4.05768 1.87953 4.71915C1.7592 4.92052 1.45457 5.51248 1.39776 5.65532C1.3855 5.68612 1.36248 5.7407 1.34659 5.77662C1.25168 5.99107 1.07877 6.47484 1.01249 6.71132C1.00141 6.75092 0.986174 6.80132 0.97867 6.82332C0.917598 7.00238 0.791406 7.59976 0.74059 7.95043C0.675278 8.40104 0.66803 8.5298 0.66803 9.23932C0.66803 9.94884 0.675278 10.0776 0.74059 10.5282C0.791406 10.8789 0.917598 11.4763 0.97867 11.6553C0.986174 11.6773 1.00141 11.7277 1.01249 11.7673C1.07877 12.0038 1.25168 12.4876 1.34659 12.702C1.36248 12.7379 1.3855 12.7925 1.39776 12.8233C1.41001 12.8541 1.49328 13.0269 1.5828 13.2073C1.82318 13.6917 2.08083 14.1108 2.41401 14.5593C2.80673 15.088 3.18419 15.7476 3.48536 16.4313C3.49697 16.4577 3.52865 16.5369 3.55574 16.6073C3.58283 16.6777 3.61118 16.7497 3.61875 16.7673C3.68454 16.9203 3.79893 17.2666 3.87771 17.5513C3.88501 17.5777 3.90211 17.6389 3.91569 17.6873C4.02808 18.0875 4.15033 18.8137 4.18774 19.3033C4.20649 19.5486 4.30003 19.8826 4.40945 20.0947C4.53704 20.3422 4.77336 20.6101 5.01424 20.7805C5.14891 20.8757 5.41648 21.0035 5.57203 21.0469C5.86928 21.1299 5.73446 21.1271 9.49203 21.1271C13.2496 21.1271 13.1148 21.1299 13.412 21.0469C13.5676 21.0035 13.8352 20.8757 13.9698 20.7805C14.2107 20.6101 14.447 20.3422 14.5746 20.0947C14.684 19.8826 14.7776 19.5486 14.7963 19.3033C14.8337 18.8137 14.956 18.0875 15.0684 17.6873C15.082 17.6389 15.0991 17.5777 15.1064 17.5513C15.1851 17.2666 15.2995 16.9203 15.3653 16.7673C15.3729 16.7497 15.4012 16.6777 15.4283 16.6073C15.4554 16.5369 15.4871 16.4577 15.4987 16.4313C15.797 15.754 16.1617 15.1147 16.5401 14.6059C16.7186 14.3659 16.9423 14.0302 17.1044 13.7593C17.2247 13.5583 17.5292 12.9668 17.5863 12.8233C17.5986 12.7925 17.6216 12.7379 17.6375 12.702C17.7324 12.4876 17.9053 12.0038 17.9716 11.7673C17.9827 11.7277 17.9979 11.6773 18.0054 11.6553C18.0665 11.4763 18.1927 10.8789 18.2435 10.5282C18.3088 10.0776 18.316 9.94884 18.316 9.23932C18.316 8.5298 18.3088 8.40104 18.2435 7.95043C18.1927 7.59976 18.0665 7.00238 18.0054 6.82332C17.9979 6.80132 17.9827 6.75092 17.9716 6.71132C17.9053 6.47484 17.7324 5.99107 17.6375 5.77662C17.6216 5.7407 17.5986 5.68612 17.5863 5.65532C17.5295 5.51248 17.2249 4.92052 17.1045 4.71915C16.7092 4.05768 16.3041 3.53915 15.7482 2.9832C15.1922 2.42726 14.6737 2.02211 14.0122 1.62683C13.8108 1.50649 13.2189 1.20187 13.076 1.14505C13.0452 1.1328 12.9907 1.10977 12.9547 1.09388C12.7403 0.998971 12.2565 0.826059 12.02 0.759787C11.9804 0.748699 11.93 0.733467 11.908 0.725963C11.7444 0.670139 11.1513 0.542667 10.8322 0.494747C10.3904 0.428395 10.2551 0.419771 9.58803 0.415451C9.22283 0.413083 8.89163 0.413819 8.85203 0.417083ZM9.14003 2.09681C8.51014 2.15129 8.11771 2.21524 7.66803 2.33668C7.44134 2.3979 7.10333 2.50595 7.01761 2.54459C6.98989 2.5571 6.95918 2.56732 6.94939 2.56732C6.9396 2.56732 6.91909 2.57393 6.90381 2.58201C6.87403 2.59777 6.81315 2.62456 6.59115 2.71958C6.23827 2.87062 5.68195 3.19088 5.33824 3.44084C4.66622 3.92956 4.18227 4.41352 3.69355 5.08553C3.44358 5.42924 3.12333 5.98556 2.97229 6.33844C2.87726 6.56044 2.85048 6.62132 2.83472 6.6511C2.82664 6.66638 2.82003 6.68689 2.82003 6.69668C2.82003 6.70648 2.80981 6.73718 2.79729 6.76491C2.72121 6.93366 2.55765 7.50068 2.49198 7.82332C2.39003 8.3242 2.3491 8.72984 2.3491 9.23932C2.3491 9.74881 2.39003 10.1544 2.49198 10.6553C2.55765 10.978 2.72121 11.545 2.79729 11.7137C2.80981 11.7415 2.82003 11.7722 2.82003 11.782C2.82003 11.7918 2.82664 11.8123 2.83472 11.8275C2.85048 11.8573 2.87726 11.9182 2.97229 12.1402C3.08953 12.4141 3.36376 12.9111 3.55712 13.2C3.59859 13.262 3.69656 13.3988 3.77485 13.504C3.94761 13.7363 4.29315 14.2624 4.45211 14.5353C4.57771 14.751 4.83966 15.2589 4.93891 15.4793C5.00077 15.6167 5.08515 15.8168 5.12617 15.9233C5.13379 15.9431 5.14627 15.9755 5.15389 15.9953C5.1804 16.0642 5.19976 16.1117 5.22581 16.1719C5.24024 16.2052 5.25208 16.2412 5.25213 16.2519C5.25219 16.2626 5.26208 16.2902 5.27413 16.3133C5.29589 16.355 5.38699 16.6271 5.4663 16.8873C5.63931 17.4549 5.78819 18.2263 5.86688 18.963C5.89797 19.254 5.93486 19.3239 6.10803 19.4199L6.17203 19.4553L7.47203 19.4602L8.77203 19.4651V16.0082C8.77203 13.4397 8.76736 12.5513 8.75387 12.5513C8.69813 12.5513 8.30688 12.6421 8.15603 12.69C7.85086 12.787 7.61704 12.8994 7.34803 13.0783C7.17942 13.1904 7.06614 13.2223 6.83539 13.2229C6.56758 13.2236 6.40392 13.1592 6.22718 12.9835C6.07749 12.8347 6.02121 12.6996 6.02041 12.4868C6.02 12.3727 6.0339 12.3156 6.12939 12.0393C6.20569 11.8185 6.25206 11.6015 6.284 11.3156C6.31393 11.0477 6.3139 10.8867 6.28387 10.6178C6.23728 10.2007 6.15181 9.8868 5.99725 9.56508C5.89691 9.35624 5.81825 9.23635 5.66521 9.05894C5.6039 8.98787 5.53445 8.89318 5.51088 8.84852C5.47229 8.77539 5.46803 8.75062 5.46803 8.59932C5.46803 8.44836 5.47249 8.42222 5.51211 8.34158C5.56726 8.22926 5.70283 8.09923 5.82398 8.04246C5.90915 8.00254 5.93157 7.99932 6.12403 7.99932C6.31937 7.99932 6.33809 8.00212 6.43161 8.04532C6.50728 8.08027 6.56507 8.12636 6.67229 8.23732C7.14709 8.72862 7.45592 9.39838 7.58949 10.2264C7.6276 10.4627 7.64816 11.1594 7.62448 11.4123C7.61221 11.5434 7.61352 11.5605 7.63528 11.5542C7.64889 11.5502 7.72304 11.5284 7.80005 11.5057C7.9491 11.4617 8.40019 11.3691 8.63163 11.3349L8.77123 11.3143L8.77563 8.91281L8.78003 6.51132L8.81734 6.40793C8.86923 6.26417 8.91701 6.18806 9.0215 6.08273C9.17893 5.92404 9.38323 5.85656 9.59833 5.8922C9.74347 5.91625 9.8556 5.97491 9.96256 6.08273C10.0671 6.18806 10.1148 6.26417 10.1667 6.40793L10.204 6.51132L10.2084 8.91228L10.2128 11.3132L10.3604 11.3342C10.5874 11.3664 11.0441 11.4597 11.2 11.5057C11.277 11.5284 11.3512 11.5502 11.3648 11.5542C11.3865 11.5605 11.3879 11.5434 11.3756 11.4123C11.3519 11.1594 11.3725 10.4627 11.4106 10.2264C11.5441 9.39838 11.853 8.72862 12.3278 8.23732C12.435 8.12636 12.4928 8.08027 12.5684 8.04532C12.662 8.00212 12.6807 7.99932 12.876 7.99932C13.0685 7.99932 13.0909 8.00254 13.1761 8.04246C13.2972 8.09923 13.4328 8.22926 13.488 8.34158C13.5276 8.42222 13.532 8.44836 13.532 8.59932C13.532 8.75062 13.5278 8.77539 13.4892 8.84852C13.4656 8.89318 13.3962 8.98787 13.3348 9.05894C13.1818 9.23635 13.1031 9.35624 13.0028 9.56508C12.8483 9.8868 12.7628 10.2007 12.7162 10.6178C12.6862 10.8867 12.6861 11.0477 12.7161 11.3156C12.748 11.6015 12.7944 11.8185 12.8707 12.0393C12.9662 12.3156 12.9801 12.3727 12.9796 12.4868C12.9788 12.6996 12.9226 12.8347 12.7729 12.9835C12.5961 13.1592 12.4325 13.2236 12.1647 13.2229C11.9339 13.2223 11.8206 13.1904 11.652 13.0783C11.383 12.8994 11.1492 12.787 10.844 12.69C10.6829 12.6388 10.3007 12.5513 10.2382 12.5513C10.2141 12.5513 10.212 12.819 10.212 16.0082V19.4651L11.512 19.4602L12.812 19.4553L12.876 19.4199C12.9671 19.3695 13.0025 19.3367 13.0506 19.259C13.0864 19.2011 13.0966 19.1559 13.1172 18.963C13.1959 18.2263 13.3448 17.4549 13.5178 16.8873C13.5971 16.6271 13.6882 16.355 13.7099 16.3133C13.722 16.2902 13.7319 16.2626 13.7319 16.2519C13.732 16.2412 13.7438 16.2052 13.7583 16.1719C13.7727 16.1386 13.7907 16.0951 13.7983 16.0753C13.8314 15.9888 13.8408 15.9648 13.8579 15.9233C13.8679 15.8991 13.8825 15.8631 13.8903 15.8433C14.0362 15.4755 14.3118 14.9135 14.5318 14.5353C14.6853 14.2713 14.9885 13.8126 15.2472 13.4531C15.5531 13.0277 15.8503 12.5175 16.0118 12.1402C16.1068 11.9182 16.1336 11.8573 16.1493 11.8275C16.1574 11.8123 16.164 11.7918 16.164 11.782C16.164 11.7722 16.1743 11.7415 16.1868 11.7137C16.2628 11.545 16.4264 10.978 16.4921 10.6553C16.594 10.1544 16.635 9.74881 16.635 9.23932C16.635 8.72984 16.594 8.3242 16.4921 7.82332C16.4264 7.50068 16.2628 6.93366 16.1868 6.76491C16.1743 6.73718 16.164 6.70648 16.164 6.69668C16.164 6.68689 16.1574 6.66638 16.1493 6.6511C16.1336 6.62132 16.1068 6.56044 16.0118 6.33844C15.8607 5.98556 15.5405 5.42924 15.2905 5.08553C14.8018 4.41352 14.3178 3.92956 13.6458 3.44084C13.3021 3.19088 12.7458 2.87062 12.3929 2.71958C12.1709 2.62456 12.11 2.59777 12.0803 2.58201C12.065 2.57393 12.0445 2.56732 12.0347 2.56732C12.0249 2.56732 11.9942 2.5571 11.9664 2.54459C11.8807 2.50595 11.5427 2.3979 11.316 2.33668C10.9544 2.23902 10.6258 2.17852 10.1723 2.12611C9.9732 2.10308 9.2912 2.08374 9.14003 2.09681ZM5.33203 21.6095C4.92677 21.6761 4.66003 22.0023 4.66003 22.4313C4.66003 22.8182 4.88851 23.1388 5.23157 23.2334C5.33621 23.2623 5.48651 23.2633 9.49203 23.2633C13.4976 23.2633 13.6479 23.2623 13.7525 23.2334C14.0956 23.1388 14.324 22.8182 14.324 22.4313C14.324 21.9943 14.0571 21.6749 13.636 21.6081C13.5036 21.5871 5.46021 21.5885 5.33203 21.6095ZM6.88403 23.7444C6.57371 23.8116 6.32325 24.0628 6.25926 24.3711C6.23157 24.5044 6.24753 24.745 6.29173 24.8608C6.40121 25.1475 6.64109 25.3392 6.94528 25.3832C7.01017 25.3926 8.00861 25.3987 9.49203 25.3987C10.9755 25.3987 11.9739 25.3926 12.0388 25.3832C12.343 25.3392 12.5828 25.1475 12.6923 24.8608C12.7365 24.745 12.7525 24.5044 12.7248 24.3711C12.66 24.059 12.4094 23.8104 12.092 23.7435C11.9285 23.709 7.04357 23.7098 6.88403 23.7444Z" fill="#FBFEFF"/>
</svg>
