<svg width="89" height="84" viewBox="0 0 89 84" fill="none" xmlns="http://www.w3.org/2000/svg">
<path d="M12.5 75.7893V77.7655C12.5 79.4123 11.9173 80.8128 10.752 81.9669C9.58667 83.121 8.16933 83.6967 6.5 83.6941C4.83067 83.6915 3.41467 83.1157 2.252 81.9669C1.08933 80.8181 0.505333 79.4176 0.5 77.7655V50.4941C0.5 49.7036 0.566666 48.9303 0.7 48.174C0.833333 47.4178 1.06667 46.6761 1.4 45.9488L9 28.0643C9.46667 26.9445 10.2 26.0552 11.2 25.3965C12.2 24.7377 13.3 24.4084 14.5 24.4084H50.5C51.7 24.4084 52.8 24.7377 53.8 25.3965C54.8 26.0552 55.5333 26.9445 56 28.0643L63.6 45.9488C63.9333 46.6735 64.1667 47.4152 64.3 48.174C64.4333 48.9329 64.5 49.7062 64.5 50.4941V77.7655C64.5 79.4123 63.9173 80.8128 62.752 81.9669C61.5867 83.121 60.1693 83.6967 58.5 83.6941C56.8307 83.6915 55.4147 83.1157 54.252 81.9669C53.0893 80.8181 52.5053 79.4176 52.5 77.7655V75.7893H12.5ZM11.7 40.2179H53.2L49.9 32.3131H15.1L11.7 40.2179ZM18.5 63.9322C20.1667 63.9322 21.584 63.3565 22.752 62.205C23.92 61.0535 24.5027 59.6531 24.5 58.0036C24.4973 56.3542 23.9147 54.955 22.752 53.8062C21.5893 52.6574 20.172 52.0803 18.5 52.075C16.828 52.0698 15.412 52.6468 14.252 53.8062C13.092 54.9655 12.508 56.3647 12.5 58.0036C12.492 59.6425 13.076 61.043 14.252 62.205C15.428 63.367 16.844 63.9427 18.5 63.9322ZM46.5 63.9322C48.1667 63.9322 49.584 63.3565 50.752 62.205C51.92 61.0535 52.5027 59.6531 52.5 58.0036C52.4973 56.3542 51.9147 54.955 50.752 53.8062C49.5893 52.6574 48.172 52.0803 46.5 52.075C44.828 52.0698 43.412 52.6468 42.252 53.8062C41.092 54.9655 40.508 56.3647 40.5 58.0036C40.492 59.6425 41.076 61.043 42.252 62.205C43.428 63.367 44.844 63.9427 46.5 63.9322ZM61.2 20.456H25.2C23.8667 20.456 22.8667 20.0449 22.2 19.2229C21.5333 18.4008 21.2 17.4943 21.2 16.5036C21.2 15.5129 21.5333 14.6078 22.2 13.7883C22.8667 12.9689 23.8667 12.5565 25.2 12.5512H62.5C63.7 12.5512 64.8 12.8806 65.8 13.5393C66.8 14.1981 67.5333 15.0873 68 16.2072L75.6 34.0917C75.9333 34.8163 76.1667 35.558 76.3 36.3169C76.4333 37.0758 76.5 37.8491 76.5 38.6369V67.8846C76.5 69.0044 76.116 69.9437 75.348 70.7026C74.58 71.4615 73.6307 71.8396 72.5 71.8369C71.3693 71.8343 70.42 71.4549 69.652 70.6987C68.884 69.9424 68.5 69.0044 68.5 67.8846V37.8465L61.2 20.456ZM73.2 8.59885H37.2C35.8667 8.59885 34.8667 8.18781 34.2 7.36571C33.5333 6.54361 33.2 5.6372 33.2 4.64647C33.2 3.65574 33.5333 2.75065 34.2 1.93119C34.8667 1.11173 35.8667 0.699362 37.2 0.694092H74.5C75.7 0.694092 76.8 1.02346 77.8 1.68219C78.8 2.34092 79.5333 3.2302 80 4.35004L87.6 22.2346C87.9333 22.9592 88.1667 23.7009 88.3 24.4598C88.4333 25.2186 88.5 25.992 88.5 26.7798V56.0274C88.5 57.1473 88.116 58.0866 87.348 58.8455C86.58 59.6043 85.6307 59.9824 84.5 59.9798C83.3693 59.9772 82.42 59.5977 81.652 58.8415C80.884 58.0853 80.5 57.1473 80.5 56.0274V25.9893L73.2 8.59885Z" fill="white"/>
</svg>
