<svg width="85" height="84" viewBox="0 0 85 84" fill="none" xmlns="http://www.w3.org/2000/svg">
<path fill-rule="evenodd" clip-rule="evenodd" d="M58.1664 78.7469C63.7063 78.7469 69.0194 76.5461 72.9368 72.6288C76.8541 68.7114 79.0548 63.3984 79.0548 57.8584C79.0548 52.3184 76.8541 47.0054 72.9368 43.088C69.0194 39.1707 63.7063 36.9699 58.1664 36.9699C52.6264 36.9699 47.3133 39.1707 43.396 43.088C39.4786 47.0054 37.2779 52.3184 37.2779 57.8584C37.2779 63.3984 39.4786 68.7114 43.396 72.6288C47.3133 76.5461 52.6264 78.7469 58.1664 78.7469ZM84.277 57.8584C84.277 64.7833 81.526 71.4247 76.6293 76.3214C71.7327 81.218 65.0913 83.969 58.1664 83.969C51.2414 83.969 44.6001 81.218 39.7034 76.3214C34.8067 71.4247 32.0558 64.7833 32.0558 57.8584C32.0558 50.9334 34.8067 44.2921 39.7034 39.3954C44.6001 34.4987 51.2414 31.7478 58.1664 31.7478C65.0913 31.7478 71.7327 34.4987 76.6293 39.3954C81.526 44.2921 84.277 50.9334 84.277 57.8584Z" fill="white"/>
<path d="M50.0095 62.7882C50.2549 65.9006 52.7145 68.3236 57.1272 68.6161V70.9138H59.0855V68.6004C63.6549 68.2819 66.3234 65.8379 66.3234 62.2973C66.3234 59.07 64.2867 57.4094 60.6313 56.553L59.0855 56.1874V49.9209C61.049 50.1454 62.2919 51.216 62.5895 52.6991H66.0257C65.7803 49.6963 63.2058 47.3516 59.0855 47.0957V44.8032H57.1272V47.1532C53.2263 47.5344 50.5734 49.8791 50.5734 53.2004C50.5734 56.1352 52.5474 58.0047 55.8321 58.7672L57.1272 59.0857V65.7282C55.1219 65.4254 53.7903 64.3183 53.4926 62.7882H50.0095ZM57.1115 55.7174C55.1846 55.2736 54.1402 54.3597 54.1402 52.9915C54.1402 51.4562 55.2681 50.3073 57.1272 49.9731V55.7174H57.1115ZM59.3675 59.6131C61.7122 60.1562 62.788 61.0336 62.788 62.5845C62.788 64.3548 61.4459 65.5664 59.0855 65.7909V59.5505L59.3675 59.6131Z" fill="white"/>
<path d="M5.94517 0.415283C4.56018 0.415283 3.23191 0.965469 2.25258 1.94481C1.27324 2.92414 0.723053 4.25241 0.723053 5.6374L0.723053 47.4143C0.723053 48.7993 1.27324 50.1276 2.25258 51.1069C3.23191 52.0863 4.56018 52.6365 5.94517 52.6365H27.2671C27.5734 50.8366 28.0225 49.0959 28.6144 47.4143H16.3894C16.3894 44.6444 15.289 41.9878 13.3304 40.0292C11.3717 38.0705 8.71515 36.9701 5.94517 36.9701V16.0816C8.71515 16.0816 11.3717 14.9813 13.3304 13.0226C15.289 11.0639 16.3894 8.40738 16.3894 5.6374H68.6106C68.6106 8.40738 69.711 11.0639 71.6696 13.0226C73.6283 14.9813 76.2848 16.0816 79.0548 16.0816V34.5053C81.0392 36.2808 82.7991 38.307 84.2769 40.5316V5.6374C84.2769 4.25241 83.7267 2.92414 82.7474 1.94481C81.7681 0.965469 80.4398 0.415283 79.0548 0.415283L5.94517 0.415283Z" fill="white"/>
<path d="M52.9338 26.9579L52.9443 26.5244C52.9432 24.7259 52.4777 22.9581 51.5928 21.3923C50.708 19.8265 49.4338 18.5157 47.8936 17.5869C46.3535 16.6581 44.5996 16.1427 42.8018 16.0908C41.004 16.0388 39.2232 16.452 37.632 17.2903C36.0408 18.1286 34.693 19.3636 33.7192 20.8757C32.7454 22.3878 32.1785 24.1257 32.0736 25.9212C31.9686 27.7167 32.3291 29.5088 33.1201 31.1241C33.9111 32.7393 35.1059 34.123 36.5886 35.1409C41.1026 30.8493 46.7932 28.0003 52.9338 26.9579Z" fill="white"/>
</svg>
