<svg width="100" height="84" viewBox="0 0 100 84" fill="none" xmlns="http://www.w3.org/2000/svg">
<path fill-rule="evenodd" clip-rule="evenodd" d="M49.945 5.57645C46.245 2.52986 41.465 0.694092 36.25 0.694092C31.035 0.694092 26.25 2.52986 22.555 5.57645H0L5 25.1059V73.9294C3.67392 73.9294 2.40215 74.4438 1.46447 75.3594C0.526784 76.275 0 77.5169 0 78.8117C0 80.1066 0.526784 81.3485 1.46447 82.2641C2.40215 83.1797 3.67392 83.6941 5 83.6941H95C96.3261 83.6941 97.5979 83.1797 98.5355 82.2641C99.4732 81.3485 100 80.1066 100 78.8117C100 77.5169 99.4732 76.275 98.5355 75.3594C97.5979 74.4438 96.3261 73.9294 95 73.9294V25.1059L100 5.57645H49.945ZM57.17 25.1059C56.2884 29.8971 53.7101 34.2333 49.886 37.3563C46.0619 40.4793 41.2353 42.1904 36.25 42.1904C31.2647 42.1904 26.4381 40.4793 22.614 37.3563C18.7899 34.2333 16.2116 29.8971 15.33 25.1059H15V73.9294H50V44.6353H75V73.9294H85V25.1059H57.17ZM40 10.4588V17.7823H47.5V25.1059H40V32.4294H32.5V25.1059H25V17.7823H32.5V10.4588H40Z" fill="white"/>
</svg>
