<svg width="18" height="21" viewBox="0 0 18 21" fill="none" xmlns="http://www.w3.org/2000/svg">
<path d="M12.6001 0C12.7754 0.000445249 12.9487 0.0370405 13.1092 0.107499C13.2698 0.177958 13.414 0.280766 13.5331 0.4095L17.6476 4.9095C17.8753 5.1549 18.0013 5.47769 18.0001 5.8125V19.6875C18.0033 20.0319 17.8697 20.3635 17.6287 20.6096C17.3877 20.8556 17.059 20.996 16.7146 21H1.28556C0.94116 20.996 0.612398 20.8556 0.371401 20.6096C0.130404 20.3635 -0.00314453 20.0319 5.62352e-05 19.6875V1.3125C5.62352e-05 0.588 0.576056 0 1.28556 0H12.6001ZM16.5001 6H12.6001C12.4409 6 12.2883 5.93679 12.1758 5.82426C12.0633 5.71174 12.0001 5.55913 12.0001 5.4V1.5H1.50006V19.5H16.5001V6Z" fill="white"/>
</svg>
