<svg width="27" height="29" viewBox="0 0 27 29" fill="none" xmlns="http://www.w3.org/2000/svg">
<path d="M9.95455 23.5625V10.2708C9.95455 10.0946 9.89915 9.94987 9.78835 9.83659C9.67756 9.72331 9.53598 9.66667 9.36364 9.66667H8.18182C8.00947 9.66667 7.8679 9.72331 7.7571 9.83659C7.64631 9.94987 7.59091 10.0946 7.59091 10.2708V23.5625C7.59091 23.7387 7.64631 23.8835 7.7571 23.9967C7.8679 24.11 8.00947 24.1667 8.18182 24.1667H9.36364C9.53598 24.1667 9.67756 24.11 9.78835 23.9967C9.89915 23.8835 9.95455 23.7387 9.95455 23.5625ZM14.6818 23.5625V10.2708C14.6818 10.0946 14.6264 9.94987 14.5156 9.83659C14.4048 9.72331 14.2633 9.66667 14.0909 9.66667H12.9091C12.7367 9.66667 12.5952 9.72331 12.4844 9.83659C12.3736 9.94987 12.3182 10.0946 12.3182 10.2708V23.5625C12.3182 23.7387 12.3736 23.8835 12.4844 23.9967C12.5952 24.11 12.7367 24.1667 12.9091 24.1667H14.0909C14.2633 24.1667 14.4048 24.11 14.5156 23.9967C14.6264 23.8835 14.6818 23.7387 14.6818 23.5625ZM19.4091 23.5625V10.2708C19.4091 10.0946 19.3537 9.94987 19.2429 9.83659C19.1321 9.72331 18.9905 9.66667 18.8182 9.66667H17.6364C17.464 9.66667 17.3224 9.72331 17.2116 9.83659C17.1009 9.94987 17.0455 10.0946 17.0455 10.2708V23.5625C17.0455 23.7387 17.1009 23.8835 17.2116 23.9967C17.3224 24.11 17.464 24.1667 17.6364 24.1667H18.8182C18.9905 24.1667 19.1321 24.11 19.2429 23.9967C19.3537 23.8835 19.4091 23.7387 19.4091 23.5625ZM9.36364 4.83333H17.6364L16.75 2.62435C16.6638 2.51107 16.5592 2.44184 16.4361 2.41667H10.5824C10.4593 2.44184 10.3546 2.51107 10.2685 2.62435L9.36364 4.83333ZM26.5 5.4375V6.64583C26.5 6.82205 26.4446 6.9668 26.3338 7.08008C26.223 7.19336 26.0814 7.25 25.9091 7.25H24.1364V25.1484C24.1364 26.1931 23.8471 27.0962 23.2685 27.8577C22.6899 28.6192 21.9943 29 21.1818 29H5.81818C5.00568 29 4.31013 28.6318 3.73153 27.8955C3.15294 27.1592 2.86364 26.2687 2.86364 25.224V7.25H1.09091C0.918561 7.25 0.776989 7.19336 0.666193 7.08008C0.555398 6.9668 0.5 6.82205 0.5 6.64583V5.4375C0.5 5.26128 0.555398 5.11654 0.666193 5.00326C0.776989 4.88997 0.918561 4.83333 1.09091 4.83333H6.79687L8.08949 1.68034C8.27415 1.21463 8.60653 0.818142 9.08665 0.490885C9.56676 0.163628 10.053 0 10.5455 0H16.4545C16.947 0 17.4332 0.163628 17.9134 0.490885C18.3935 0.818142 18.7259 1.21463 18.9105 1.68034L20.2031 4.83333H25.9091C26.0814 4.83333 26.223 4.88997 26.3338 5.00326C26.4446 5.11654 26.5 5.26128 26.5 5.4375Z" fill="#949494"/>
</svg>
