<svg width="24" height="25" viewBox="0 0 24 25" fill="none" xmlns="http://www.w3.org/2000/svg">
<path d="M12.75 16.2797H13.4C14.05 16.2797 14.59 15.6997 14.59 14.9997C14.59 14.1297 14.28 13.9597 13.77 13.7797L12.76 13.4297V16.2797H12.75Z" fill="#FF8359"/>
<path d="M11.9701 2.25978C6.45007 2.27978 1.98007 6.76978 2.00007 12.2898C2.02007 17.8098 6.51007 22.2798 12.0301 22.2598C17.5501 22.2398 22.0201 17.7498 22.0001 12.2298C21.9801 6.70978 17.4901 2.24978 11.9701 2.25978ZM14.2601 12.3598C15.0401 12.6298 16.0901 13.2098 16.0901 14.9998C16.0901 16.5398 14.8801 17.7798 13.4001 17.7798H12.7501V18.3598C12.7501 18.7698 12.4101 19.1098 12.0001 19.1098C11.5901 19.1098 11.2501 18.7698 11.2501 18.3598V17.7798H10.8901C9.25007 17.7798 7.92007 16.3998 7.92007 14.6998C7.92007 14.2898 8.26007 13.9498 8.67007 13.9498C9.08007 13.9498 9.42007 14.2898 9.42007 14.6998C9.42007 15.5698 10.0801 16.2798 10.8901 16.2798H11.2501V12.8998L9.74007 12.3598C8.96007 12.0898 7.91007 11.5098 7.91007 9.71978C7.91007 8.17978 9.12007 6.93978 10.6001 6.93978H11.2501V6.35978C11.2501 5.94978 11.5901 5.60978 12.0001 5.60978C12.4101 5.60978 12.7501 5.94978 12.7501 6.35978V6.93978H13.1101C14.7501 6.93978 16.0801 8.31978 16.0801 10.0198C16.0801 10.4298 15.7401 10.7698 15.3301 10.7698C14.9201 10.7698 14.5801 10.4298 14.5801 10.0198C14.5801 9.14978 13.9201 8.43978 13.1101 8.43978H12.7501V11.8198L14.2601 12.3598Z" fill="#FF8359"/>
<path d="M9.41992 9.72945C9.41992 10.5995 9.72992 10.7695 10.2399 10.9495L11.2499 11.2995V8.43945H10.5999C9.94992 8.43945 9.41992 9.01945 9.41992 9.72945Z" fill="#FF8359"/>
</svg>
