<svg width="24" height="25" viewBox="0 0 24 25" fill="none" xmlns="http://www.w3.org/2000/svg">
<path d="M22 21.958H2C1.59 21.958 1.25 22.298 1.25 22.708C1.25 23.118 1.59 23.458 2 23.458H22C22.41 23.458 22.75 23.118 22.75 22.708C22.75 22.298 22.41 21.958 22 21.958Z" fill="#FF8359"/>
<path d="M17 2.70801H7C4 2.70801 3 4.49801 3 6.70801V22.708H9V16.648C9 16.128 9.42 15.708 9.94 15.708H14.07C14.58 15.708 15.01 16.128 15.01 16.648V22.708H21.01V6.70801C21 4.49801 20 2.70801 17 2.70801ZM14.5 9.95801H12.75V11.708C12.75 12.118 12.41 12.458 12 12.458C11.59 12.458 11.25 12.118 11.25 11.708V9.95801H9.5C9.09 9.95801 8.75 9.61801 8.75 9.20801C8.75 8.79801 9.09 8.45801 9.5 8.45801H11.25V6.70801C11.25 6.29801 11.59 5.95801 12 5.95801C12.41 5.95801 12.75 6.29801 12.75 6.70801V8.45801H14.5C14.91 8.45801 15.25 8.79801 15.25 9.20801C15.25 9.61801 14.91 9.95801 14.5 9.95801Z" fill="#FF8359"/>
</svg>
