<svg width="25" height="25" viewBox="0 0 25 25" fill="none" xmlns="http://www.w3.org/2000/svg">
<path d="M22.25 8.24813C22.25 8.65812 21.91 8.99813 21.5 8.99813H3.5C3.09 8.99813 2.75 8.65812 2.75 8.24813C2.75 7.83813 3.09 7.49813 3.5 7.49813H4.52L4.9 5.68813C5.26 3.93813 6.01 2.32812 8.99 2.32812H16.01C18.99 2.32812 19.74 3.93813 20.1 5.68813L20.48 7.49813H21.5C21.91 7.49813 22.25 7.83813 22.25 8.24813Z" fill="#FF8359"/>
<path d="M22.6801 13.908C22.5301 12.258 22.0901 10.498 18.8801 10.498H6.12009C2.91009 10.498 2.48009 12.258 2.32009 13.908L1.76009 19.998C1.69009 20.758 1.94009 21.518 2.46009 22.088C2.99009 22.668 3.74009 22.998 4.54009 22.998H6.42009C8.04009 22.998 8.35009 22.068 8.55009 21.458L8.75009 20.858C8.98009 20.168 9.04009 19.998 9.94009 19.998H15.0601C15.9601 19.998 15.9901 20.098 16.2501 20.858L16.4501 21.458C16.6501 22.068 16.9601 22.998 18.5801 22.998H20.4601C21.2501 22.998 22.0101 22.668 22.5401 22.088C23.0601 21.518 23.3101 20.758 23.2401 19.998L22.6801 13.908ZM9.50009 15.998H6.50009C6.09009 15.998 5.75009 15.658 5.75009 15.248C5.75009 14.838 6.09009 14.498 6.50009 14.498H9.50009C9.91009 14.498 10.2501 14.838 10.2501 15.248C10.2501 15.658 9.91009 15.998 9.50009 15.998ZM18.5001 15.998H15.5001C15.0901 15.998 14.7501 15.658 14.7501 15.248C14.7501 14.838 15.0901 14.498 15.5001 14.498H18.5001C18.9101 14.498 19.2501 14.838 19.2501 15.248C19.2501 15.658 18.9101 15.998 18.5001 15.998Z" fill="#FF8359"/>
</svg>
