<svg width="42" height="47" viewBox="0 0 42 47" fill="none" xmlns="http://www.w3.org/2000/svg">
<g id="Property 1=selected">
<path id="Vector" d="M15.2727 38.1875V16.6458C15.2727 16.3602 15.1832 16.1257 15.0043 15.9421C14.8253 15.7585 14.5966 15.6667 14.3182 15.6667H12.4091C12.1307 15.6667 11.902 15.7585 11.723 15.9421C11.544 16.1257 11.4545 16.3602 11.4545 16.6458V38.1875C11.4545 38.4731 11.544 38.7077 11.723 38.8913C11.902 39.0749 12.1307 39.1667 12.4091 39.1667H14.3182C14.5966 39.1667 14.8253 39.0749 15.0043 38.8913C15.1832 38.7077 15.2727 38.4731 15.2727 38.1875ZM22.9091 38.1875V16.6458C22.9091 16.3602 22.8196 16.1257 22.6406 15.9421C22.4616 15.7585 22.233 15.6667 21.9545 15.6667H20.0455C19.767 15.6667 19.5384 15.7585 19.3594 15.9421C19.1804 16.1257 19.0909 16.3602 19.0909 16.6458V38.1875C19.0909 38.4731 19.1804 38.7077 19.3594 38.8913C19.5384 39.0749 19.767 39.1667 20.0455 39.1667H21.9545C22.233 39.1667 22.4616 39.0749 22.6406 38.8913C22.8196 38.7077 22.9091 38.4731 22.9091 38.1875ZM30.5455 38.1875V16.6458C30.5455 16.3602 30.456 16.1257 30.277 15.9421C30.098 15.7585 29.8693 15.6667 29.5909 15.6667H27.6818C27.4034 15.6667 27.1747 15.7585 26.9957 15.9421C26.8168 16.1257 26.7273 16.3602 26.7273 16.6458V38.1875C26.7273 38.4731 26.8168 38.7077 26.9957 38.8913C27.1747 39.0749 27.4034 39.1667 27.6818 39.1667H29.5909C29.8693 39.1667 30.098 39.0749 30.277 38.8913C30.456 38.7077 30.5455 38.4731 30.5455 38.1875ZM14.3182 7.83333H27.6818L26.25 4.25326C26.1108 4.06966 25.9418 3.95747 25.7429 3.91667H16.2869C16.0881 3.95747 15.919 4.06966 15.7798 4.25326L14.3182 7.83333ZM42 8.8125V10.7708C42 11.0564 41.9105 11.291 41.7315 11.4746C41.5526 11.6582 41.3239 11.75 41.0455 11.75H38.1818V40.7578C38.1818 42.451 37.7145 43.9146 36.7798 45.1488C35.8452 46.3829 34.7216 47 33.4091 47H8.59091C7.27841 47 6.15483 46.4033 5.22017 45.21C4.28551 44.0166 3.81818 42.5734 3.81818 40.8802V11.75H0.954545C0.676136 11.75 0.447443 11.6582 0.268466 11.4746C0.0894886 11.291 0 11.0564 0 10.7708V8.8125C0 8.52691 0.0894886 8.29232 0.268466 8.10872C0.447443 7.92513 0.676136 7.83333 0.954545 7.83333H10.1719L12.2599 2.72331C12.5582 1.96853 13.0952 1.32595 13.8707 0.795573C14.6463 0.265191 15.4318 0 16.2273 0H25.7727C26.5682 0 27.3537 0.265191 28.1293 0.795573C28.9048 1.32595 29.4418 1.96853 29.7401 2.72331L31.8281 7.83333H41.0455C41.3239 7.83333 41.5526 7.92513 41.7315 8.10872C41.9105 8.29232 42 8.52691 42 8.8125Z" fill="#2D5177"/>
</g>
</svg>
