<svg width="865" height="475" viewBox="0 0 865 475" fill="none" xmlns="http://www.w3.org/2000/svg">
<path d="M265.453 38.1559C372.282 -23.2475 477.676 3.62547 517.02 24.7374C554.5 44.8492 612.036 55.8684 677.062 55.8684C753.5 55.8684 777.661 91.8021 797.5 111.304C817.339 130.805 846.274 156.955 853.609 170.195C880.409 216.611 853.609 260.405 837.605 274.859C797.194 311.358 786.591 319.304 786.591 350.003C786.591 368.968 786.009 417.311 752 433.199C709.489 453.058 639.083 444.092 582.5 438.804C522.521 433.199 412.68 442.559 361 458.304C349.83 461.524 318.911 477.309 276.5 474.304C223.486 470.547 160.881 452.017 132.418 429.441C81.6973 389.211 77.6383 360.962 71.0001 346.304C56.289 313.819 39.5044 301.906 23.5002 285.804C4.78796 266.977 -12.2072 214.331 15 162.804C42.2072 111.276 78.2836 84.3542 112.5 79.8037L198.936 59.0888C230.944 53.5067 256.618 42.8077 265.453 38.1559Z" fill="#2D5177"/>
</svg>
