<svg width="43" height="47" viewBox="0 0 43 47" fill="none" xmlns="http://www.w3.org/2000/svg">
<path d="M15.7727 38.1875V16.6458C15.7727 16.3602 15.6832 16.1257 15.5043 15.9421C15.3253 15.7585 15.0966 15.6667 14.8182 15.6667H12.9091C12.6307 15.6667 12.402 15.7585 12.223 15.9421C12.044 16.1257 11.9545 16.3602 11.9545 16.6458V38.1875C11.9545 38.4731 12.044 38.7077 12.223 38.8913C12.402 39.0749 12.6307 39.1667 12.9091 39.1667H14.8182C15.0966 39.1667 15.3253 39.0749 15.5043 38.8913C15.6832 38.7077 15.7727 38.4731 15.7727 38.1875ZM23.4091 38.1875V16.6458C23.4091 16.3602 23.3196 16.1257 23.1406 15.9421C22.9616 15.7585 22.733 15.6667 22.4545 15.6667H20.5455C20.267 15.6667 20.0384 15.7585 19.8594 15.9421C19.6804 16.1257 19.5909 16.3602 19.5909 16.6458V38.1875C19.5909 38.4731 19.6804 38.7077 19.8594 38.8913C20.0384 39.0749 20.267 39.1667 20.5455 39.1667H22.4545C22.733 39.1667 22.9616 39.0749 23.1406 38.8913C23.3196 38.7077 23.4091 38.4731 23.4091 38.1875ZM31.0455 38.1875V16.6458C31.0455 16.3602 30.956 16.1257 30.777 15.9421C30.598 15.7585 30.3693 15.6667 30.0909 15.6667H28.1818C27.9034 15.6667 27.6747 15.7585 27.4957 15.9421C27.3168 16.1257 27.2273 16.3602 27.2273 16.6458V38.1875C27.2273 38.4731 27.3168 38.7077 27.4957 38.8913C27.6747 39.0749 27.9034 39.1667 28.1818 39.1667H30.0909C30.3693 39.1667 30.598 39.0749 30.777 38.8913C30.956 38.7077 31.0455 38.4731 31.0455 38.1875ZM14.8182 7.83333H28.1818L26.75 4.25326C26.6108 4.06966 26.4418 3.95747 26.2429 3.91667H16.7869C16.5881 3.95747 16.419 4.06966 16.2798 4.25326L14.8182 7.83333ZM42.5 8.8125V10.7708C42.5 11.0564 42.4105 11.291 42.2315 11.4746C42.0526 11.6582 41.8239 11.75 41.5455 11.75H38.6818V40.7578C38.6818 42.451 38.2145 43.9146 37.2798 45.1488C36.3452 46.3829 35.2216 47 33.9091 47H9.09091C7.77841 47 6.65483 46.4033 5.72017 45.21C4.78551 44.0166 4.31818 42.5734 4.31818 40.8802V11.75H1.45455C1.17614 11.75 0.947443 11.6582 0.768466 11.4746C0.589489 11.291 0.5 11.0564 0.5 10.7708V8.8125C0.5 8.52691 0.589489 8.29232 0.768466 8.10872C0.947443 7.92513 1.17614 7.83333 1.45455 7.83333H10.6719L12.7599 2.72331C13.0582 1.96853 13.5952 1.32595 14.3707 0.795573C15.1463 0.265191 15.9318 0 16.7273 0H26.2727C27.0682 0 27.8537 0.265191 28.6293 0.795573C29.4048 1.32595 29.9418 1.96853 30.2401 2.72331L32.3281 7.83333H41.5455C41.8239 7.83333 42.0526 7.92513 42.2315 8.10872C42.4105 8.29232 42.5 8.52691 42.5 8.8125Z" fill="#949494"/>
</svg>
