<svg width="124" height="97" viewBox="0 0 124 97" fill="none" xmlns="http://www.w3.org/2000/svg">
<g id="Group 39">
<path id="Union" fill-rule="evenodd" clip-rule="evenodd" d="M116.043 36.5779C115.558 27.5216 113.49 10.4938 104.919 3.37202C98.2698 -2.15302 90.6168 7.79274 85.1367 17.7005C76.4664 16.2417 66.6961 16.273 56.5938 18.0963C45.4495 20.1078 35.446 24.0212 27.4079 29.0964C19.5323 22.6269 10.2093 17.2803 6.32728 23.9716C1.12467 32.9391 4.7982 48.3428 7.33536 56.4459C7.18749 58.3202 7.27414 60.2005 7.61191 62.0719C11.0037 80.8641 38.4329 91.6438 68.8766 86.1491C99.3204 80.6543 121.25 60.9657 117.859 42.1735C117.506 40.2185 116.893 38.3502 116.043 36.5779Z" fill="white"/>
<path id="Subtract" fill-rule="evenodd" clip-rule="evenodd" d="M104.919 3.37202C113.49 10.4938 115.558 27.5216 116.043 36.5779C116.893 38.3502 117.506 40.2185 117.859 42.1735C121.25 60.9657 99.3204 80.6543 68.8766 86.1491C38.4329 91.6438 11.0037 80.8641 7.61191 62.0719C7.27414 60.2005 7.18749 58.3202 7.33536 56.4459C4.7982 48.3428 1.12467 32.9391 6.32728 23.9716C10.2093 17.2803 19.5323 22.6269 27.4079 29.0964C30.799 26.9553 34.54 25.0209 38.5688 23.3489L40.4665 33.8629C40.8974 36.2507 43.1824 37.837 45.5702 37.406C47.9579 36.975 49.5442 34.69 49.1132 32.3023L46.9614 20.3802C48.6998 19.8652 50.4769 19.3972 52.289 18.9798L54.777 32.7647C55.208 35.1524 57.493 36.7387 59.8807 36.3077C62.2685 35.8768 63.8548 33.5918 63.4238 31.204L60.9358 17.4191C62.7795 17.1768 64.6081 16.9939 66.4168 16.8687L68.5686 28.7909C68.9995 31.1786 71.2846 32.7649 73.6723 32.3339C76.06 31.903 77.6463 29.6179 77.2154 27.2302L75.3177 16.7161C78.7107 16.8391 81.9959 17.1721 85.1367 17.7005C90.6168 7.79274 98.2698 -2.15302 104.919 3.37202Z" fill="black"/>
<path id="Vector 1" d="M9.52891 28.6017C6.06583 34.5966 7.3343 41.5979 10.9029 46.6342C14.4714 51.6705 25.5105 40.3535 25.6019 36.8975C25.6933 33.4415 12.992 22.6067 9.52891 28.6017Z" fill="#FFC4C4"/>
<path id="Vector 2" d="M103.71 8.01611C109.398 12.6663 110.729 20.0695 109.031 26.3809C107.333 32.6923 92.0966 25.5849 90.7222 22.1969C89.3478 18.809 98.0227 3.36588 103.71 8.01611Z" fill="#FFC4C4"/>
<path id="Polygon 4" d="M64.9275 70.6236C65.7433 71.0571 66.7498 70.8754 67.3625 70.1842L69.7295 67.514C70.9888 66.0934 69.7458 63.8819 67.8776 64.2191L62.3596 65.2151C60.4914 65.5523 60.1 68.0588 61.7764 68.9495L64.9275 70.6236Z" fill="#FFC4C4"/>
<ellipse id="Ellipse 26" cx="87.0717" cy="47.7935" rx="14.7059" ry="12.9052" transform="rotate(-10.2312 87.0717 47.7935)" fill="white"/>
<ellipse id="Ellipse 27" cx="83.5275" cy="48.4332" rx="11.1045" ry="9.90398" transform="rotate(-10.2312 83.5275 48.4332)" fill="#98C1D9"/>
<ellipse id="Ellipse 28" cx="40.4065" cy="56.2161" rx="14.7059" ry="12.9052" transform="rotate(-10.2312 40.4065 56.2161)" fill="white"/>
<ellipse id="Ellipse 29" cx="43.9507" cy="55.5764" rx="11.1045" ry="9.90398" transform="rotate(-10.2312 43.9507 55.5764)" fill="#98C1D9"/>
</g>
</svg>
