<svg width="67" height="67" viewBox="0 0 67 67" fill="none" xmlns="http://www.w3.org/2000/svg">
<circle cx="33.6466" cy="33.353" r="33" fill="#FF8359"/>
<path d="M50.3731 19.7574C49.478 18.8567 48.4033 18.3807 47.2649 18.3822L47.2498 18.3826C46.7336 18.3881 46.2231 18.4905 45.7446 18.6844L45.692 18.7057C43.4644 19.6449 41.9458 22.4742 41.9142 25.7458C41.8888 28.1393 42.6811 30.3822 44.0341 31.7459C44.9287 32.6478 46.0051 33.1232 47.1476 33.12L47.1599 33.1198C47.6761 33.1142 48.1866 33.0118 48.6651 32.818C50.9277 31.9038 52.4702 29.0649 52.5081 25.7476C52.5239 23.361 51.7273 21.1216 50.3731 19.7574ZM46.2999 35.459C44.6935 35.2045 43.1749 34.9634 41.8435 33.9661C38.1658 31.2025 35.9453 29.5347 32.4591 30.9432C28.973 32.3517 28.531 35.0953 27.8002 39.64C27.5344 41.2845 26.6073 42.5147 25.6257 43.8186C24.4999 45.3129 23.3368 46.8567 23.4076 48.9413C23.4143 49.7004 23.5666 50.4511 23.8561 51.1529C25.0511 54.1108 28.3273 55.5866 31.1577 54.4431C32.6181 53.853 33.9679 52.7191 35.3963 51.5189C36.7696 50.3649 38.1893 49.172 39.6029 48.6009C41.0164 48.0298 42.8623 47.9033 44.646 47.7818C46.5025 47.6509 48.2538 47.532 49.7184 46.9402C52.5446 45.7983 53.872 42.4626 52.6769 39.5047C52.3947 38.7994 51.9799 38.1547 51.455 37.6056C50.0572 36.0552 48.1469 35.7522 46.2999 35.459ZM22.5691 31.5748C24.0445 32.4076 25.5602 32.582 26.8372 32.0661C27.0115 31.9956 27.1803 31.9123 27.3424 31.817C29.8475 30.3493 30.194 26.4288 28.1288 22.8854C27.2616 21.3953 26.0574 20.1677 24.7437 19.4274C23.271 18.5963 21.754 18.4235 20.4778 18.9391C20.3035 19.0095 20.1347 19.0928 19.9726 19.1882C17.4675 20.6559 17.121 24.5764 19.1863 28.1197C20.0516 29.6077 21.2552 30.8337 22.5691 31.5748ZM36.7476 28.017C36.9304 27.973 37.1097 27.9156 37.2841 27.8452C38.5619 27.329 39.5302 26.151 40.013 24.527C40.4425 23.0815 40.4534 21.3649 40.0448 19.6904C39.0697 15.7086 36.097 13.1291 33.2748 13.8118C33.092 13.8558 32.9127 13.9132 32.7383 13.9836C31.4628 14.5008 30.4917 15.679 30.0096 17.2998C29.5789 18.7449 29.5654 20.4645 29.9782 22.1401C30.9534 26.1219 33.926 28.7014 36.7476 28.017ZM23.3963 42.721L23.4061 42.7122C24.2285 41.9215 24.6721 40.833 24.6886 39.5639C24.7133 37.6398 23.7269 35.4781 22.0476 33.7734C19.723 31.4144 16.6419 30.4427 14.3817 31.3558C13.9028 31.5485 13.4644 31.8295 13.0894 32.1842L13.0795 32.193C12.2583 32.9794 11.816 34.0712 11.7995 35.3403C11.7748 37.2644 12.7612 39.4261 14.4405 41.1308C16.7651 43.4898 19.8462 44.4616 22.1064 43.5484C22.5843 43.3557 23.0219 43.0751 23.3963 42.721Z" fill="#FBFEFF"/>
</svg>
