<svg width="48" height="54" viewBox="0 0 48 54" fill="none" xmlns="http://www.w3.org/2000/svg">
<g id="Group">
<path id="Vector" fill-rule="evenodd" clip-rule="evenodd" d="M25.7553 51.7441L25.7294 51.749L25.5623 51.8333L25.5152 51.8429L25.4823 51.8333L25.3151 51.749C25.29 51.7409 25.2712 51.7449 25.2586 51.761L25.2492 51.7851L25.2092 52.8165L25.221 52.8647L25.2445 52.896L25.4893 53.0743L25.5246 53.084L25.5529 53.0743L25.7977 52.896L25.826 52.8575L25.8354 52.8165L25.7954 51.7875C25.7891 51.7618 25.7757 51.7474 25.7553 51.7441ZM26.3791 51.4718L26.3485 51.4767L25.9131 51.7008L25.8895 51.7249L25.8825 51.7514L25.9248 52.7876L25.9366 52.8165L25.9554 52.8334L26.4286 53.0575C26.4584 53.0655 26.4811 53.0591 26.4968 53.0382L26.5063 53.0045L26.4262 51.5249C26.4184 51.4959 26.4027 51.4783 26.3791 51.4718ZM24.696 51.4767C24.6857 51.4702 24.6733 51.4681 24.6614 51.4708C24.6496 51.4735 24.6392 51.4808 24.6325 51.4911L24.6184 51.5249L24.5383 53.0045C24.5399 53.0334 24.5532 53.0527 24.5783 53.0623L24.6137 53.0575L25.0868 52.8334L25.1103 52.8141L25.1198 52.7876L25.1598 51.7514L25.1527 51.7225L25.1292 51.6984L24.696 51.4767Z" fill="black"/>
<path id="Vector_2" fill-rule="evenodd" clip-rule="evenodd" d="M35.0746 49.0332C31.6849 48.9055 22.0783 47.5463 12.0174 37.2493C1.95886 26.9499 0.633569 17.118 0.506455 13.6455C0.318136 8.35367 4.27753 3.21361 8.85131 1.20627C9.40209 0.962798 10.0052 0.870102 10.6016 0.937275C11.1979 1.00445 11.7669 1.22918 12.2528 1.58942C16.0192 4.39922 18.618 8.65008 20.8495 11.9924C21.3405 12.7268 21.5505 13.6204 21.4393 14.5029C21.3282 15.3855 20.9038 16.1954 20.2469 16.7783L15.6543 20.27C15.4324 20.4341 15.2762 20.6749 15.2148 20.948C15.1533 21.221 15.1907 21.5076 15.32 21.7545C16.3605 23.6895 18.2107 26.5716 20.3293 28.7404C22.4479 30.9092 25.3974 32.9286 27.4195 34.1142C27.673 34.2599 27.9714 34.3006 28.2534 34.228C28.5354 34.1554 28.7794 33.975 28.9355 33.7238L31.925 29.0657C32.4746 28.3183 33.2854 27.8176 34.1876 27.6685C35.0898 27.5194 36.0133 27.7334 36.7648 28.2657C40.0768 30.6128 43.9421 33.2274 46.7716 36.9361C47.152 37.4371 47.394 38.0335 47.4723 38.663C47.5506 39.2925 47.4622 39.932 47.2165 40.5146C45.2462 45.2209 40.2605 49.2284 35.0746 49.0332Z" fill="black"/>
</g>
</svg>
