<svg width="89" height="83" viewBox="0 0 89 83" fill="none" xmlns="http://www.w3.org/2000/svg">
<path fill-rule="evenodd" clip-rule="evenodd" d="M65.4711 82.0892C59.0523 81.8713 40.8611 79.5526 21.8096 61.9857C2.76252 44.4146 0.252929 27.6411 0.0122225 21.7169C-0.34438 12.6888 7.15319 3.91975 15.8142 0.495164C16.8571 0.0798016 17.9993 -0.0783396 19.1285 0.0362587C20.2577 0.150857 21.3352 0.534257 22.2553 1.14884C29.3874 5.94244 34.3085 13.1945 38.5342 18.8967C39.464 20.1495 39.8615 21.674 39.6511 23.1797C39.4407 24.6854 38.637 26.0671 37.3931 27.0614L28.6965 33.0185C28.2763 33.2983 27.9805 33.7093 27.8641 34.175C27.7477 34.6408 27.8186 35.1297 28.0635 35.551C30.0337 38.8522 33.5373 43.7691 37.5491 47.4692C41.5609 51.1692 47.1462 54.6144 50.9752 56.6371C51.4553 56.8856 52.0204 56.9551 52.5543 56.8312C53.0883 56.7074 53.5504 56.3995 53.8459 55.9711L59.5069 48.0242C60.5477 46.7491 62.0831 45.8949 63.7914 45.6405C65.4998 45.3861 67.2486 45.7511 68.6716 46.6593C74.9434 50.6636 82.2627 55.1242 87.6206 61.4512C88.3411 62.3059 88.7994 63.3235 88.9476 64.3974C89.0958 65.4714 88.9284 66.5624 88.4631 67.5563C84.7321 75.5854 75.2911 82.4222 65.4711 82.0892Z" fill="black"/>
</svg>
