<svg width="48" height="50" viewBox="0 0 48 50" fill="none" xmlns="http://www.w3.org/2000/svg">
<path fill-rule="evenodd" clip-rule="evenodd" d="M35.0746 49.0332C31.6849 48.9055 22.0783 47.5463 12.0174 37.2493C1.95886 26.9499 0.633569 17.118 0.506455 13.6455C0.318136 8.35367 4.27753 3.21361 8.85131 1.20627C9.40209 0.962798 10.0052 0.870102 10.6016 0.937275C11.1979 1.00445 11.7669 1.22918 12.2528 1.58942C16.0192 4.39922 18.618 8.65008 20.8495 11.9924C21.3405 12.7268 21.5505 13.6204 21.4393 14.5029C21.3282 15.3855 20.9038 16.1954 20.2469 16.7783L15.6543 20.27C15.4324 20.4341 15.2762 20.6749 15.2148 20.948C15.1533 21.221 15.1907 21.5076 15.32 21.7545C16.3605 23.6895 18.2107 26.5716 20.3293 28.7404C22.4479 30.9092 25.3974 32.9286 27.4195 34.1142C27.673 34.2599 27.9714 34.3006 28.2534 34.228C28.5354 34.1554 28.7794 33.975 28.9355 33.7238L31.925 29.0657C32.4746 28.3183 33.2854 27.8176 34.1876 27.6685C35.0898 27.5194 36.0133 27.7334 36.7648 28.2657C40.0768 30.6128 43.9421 33.2274 46.7716 36.9361C47.152 37.4371 47.394 38.0335 47.4723 38.663C47.5506 39.2925 47.4622 39.932 47.2165 40.5146C45.2462 45.2209 40.2605 49.2284 35.0746 49.0332Z" fill="black"/>
</svg>
