<svg width="66" height="69" viewBox="0 0 66 69" fill="none" xmlns="http://www.w3.org/2000/svg">
<g id="Group">
<path id="Vector" fill-rule="evenodd" clip-rule="evenodd" d="M55.7487 6.97964V17.5714C57.0291 17.5714 58.297 17.8236 59.4799 18.3136C60.6628 18.8035 61.7377 19.5217 62.643 20.4271C63.5484 21.3325 64.2666 22.4073 64.7566 23.5902C65.2466 24.7731 65.4987 26.041 65.4987 27.3214C65.4987 28.6018 65.2466 29.8696 64.7566 31.0526C64.2666 32.2355 63.5484 33.3103 62.643 34.2157C61.7377 35.1211 60.6628 35.8392 59.4799 36.3292C58.297 36.8192 57.0291 37.0714 55.7487 37.0714V46.8214C55.7487 52.1774 49.6355 55.2356 45.3487 52.0214L38.6537 46.9969C35.0749 44.3138 30.9081 42.5223 26.4987 41.7709V51.0139C26.4991 53.1386 25.7314 55.1917 24.3372 56.795C22.9429 58.3982 21.0161 59.4434 18.912 59.7378C16.8078 60.0323 14.6681 59.5563 12.8873 58.3974C11.1065 57.2386 9.80469 55.475 9.22174 53.4319L4.11924 35.5699C2.28305 33.4015 1.08808 30.7638 0.66867 27.9535C0.249257 25.1432 0.622021 22.2717 1.74506 19.6616C2.8681 17.0515 4.6969 14.8064 7.02588 13.1787C9.35485 11.5509 12.0917 10.6051 14.9287 10.4474L24.7372 9.90139C29.5363 9.63482 34.2035 8.23244 38.3547 5.80964L45.9727 1.36364C50.3082 -1.16161 55.7487 1.96164 55.7487 6.97964ZM12.3092 40.5749L15.4715 51.6476C15.6237 52.1836 15.9646 52.6464 16.4315 52.9506C16.8983 53.2548 17.4594 53.3798 18.0111 53.3026C18.5629 53.2253 19.0681 52.9511 19.4335 52.5304C19.7988 52.1097 19.9996 51.5711 19.9987 51.0139V41.2314L14.9287 40.9486C14.0469 40.8955 13.1708 40.7705 12.3092 40.5749ZM49.2487 6.97964L41.6275 11.4289C36.9993 14.132 31.8355 15.7892 26.4987 16.2844V35.1961C32.3065 35.9956 37.8347 38.2609 42.5537 41.7969L49.2487 46.8214V6.97964ZM19.9987 16.6744L15.2862 16.9344C13.0939 17.0554 11.0267 17.994 9.49251 19.5647C7.95835 21.1354 7.06878 23.2242 6.9994 25.4187C6.93001 27.6133 7.68586 29.7541 9.11773 31.4186C10.5496 33.0831 12.5535 34.1503 14.7337 34.4096L15.2862 34.4584L19.9987 34.7184V16.6744ZM55.7487 24.0714V30.5714C56.5771 30.5705 57.3738 30.2533 57.9762 29.6846C58.5785 29.116 58.941 28.3388 58.9895 27.5119C59.0381 26.6849 58.769 25.8707 58.2374 25.2354C57.7057 24.6002 56.9516 24.192 56.129 24.0941L55.7487 24.0714Z" fill="white"/>
</g>
</svg>
