<svg width="187" height="72" viewBox="0 0 187 72" fill="none" xmlns="http://www.w3.org/2000/svg">
<circle cx="30.6666" cy="31.6666" r="30.6666" fill="#FFA38D"/>
<path d="M12.5684 9.11955C27.0638 8.19787 55.0492 15.3032 51.0274 51.0977" stroke="#EE6C4D" stroke-width="3" stroke-linecap="round"/>
<path d="M20.6121 5.09347C34.1175 4.22304 60.1915 10.9333 56.4443 44.7377" stroke="#EE6C4D" stroke-width="3" stroke-linecap="round"/>
<path d="M30.6667 2.06349C41.5461 1.35833 62.5502 6.79447 59.5316 34.1803" stroke="#EE6C4D" stroke-width="3" stroke-linecap="round"/>
<path d="M48.7095 38.274C40.1381 46.4067 18.9579 56.5596 2.80826 32.1103" stroke="#EE6C4D" stroke-width="3" stroke-linecap="round"/>
<path d="M48.7259 44.6906C40.0694 52.8874 18.7573 63.2028 2.76026 38.8902" stroke="#EE6C4D" stroke-width="3" stroke-linecap="round"/>
<path d="M48.7301 51.2311C40.5204 58.953 19.7171 70.3722 5.53023 48.5082" stroke="#EE6C4D" stroke-width="3" stroke-linecap="round"/>
<path d="M23.5931 44.9437C19.1105 38.2843 15.0755 23.3264 34.7966 16.7703" stroke="#EE6C4D" stroke-width="3" stroke-linecap="round"/>
<path d="M15.3869 40.0141C11.261 33.9311 7.75287 20.1595 26.7272 13.7381" stroke="#EE6C4D" stroke-width="3" stroke-linecap="round"/>
<path d="M9.42309 36.5472C5.7771 30.9612 1.01226 18.1336 14.0446 14.2162" stroke="#EE6C4D" stroke-width="3" stroke-linecap="round"/>
<path d="M22.0972 28.1757C27.4302 28.4653 36.9863 32.3254 32.5469 45.4488" stroke="#EE6C4D" stroke-width="3" stroke-linecap="round"/>
<path d="M28.7371 24.9484C33.621 25.1963 42.3362 28.8603 38.1251 41.5323" stroke="#EE6C4D" stroke-width="3" stroke-linecap="round"/>
<path d="M32.8803 23.1403C37.3078 23.4439 46.0267 26.0603 42.8727 34.566" stroke="#EE6C4D" stroke-width="3" stroke-linecap="round"/>
<path d="M59.3225 38.9563C63.5957 50.2677 78.6777 43.4808 72.6449 38.9563C66.6121 34.4317 73.9017 22.1147 83.2023 25.8852C92.5028 29.6557 79.4318 42.4754 88.481 47C97.5301 51.5246 100.798 42.7267 107.082 38.9563C113.366 35.1858 109.847 47.2513 113.366 51.2732C116.885 55.295 124.175 35.4371 138.754 31.6666C153.333 27.8961 151.071 35.6885 159.618 43.4808C168.164 51.2732 183.598 42.1235 184 29.6557" stroke="#FFA38D" stroke-width="5" stroke-linecap="round"/>
</svg>
